<?xml version="1.0" encoding="UTF-8" standalone="no"?>
<!DOCTYPE svg PUBLIC "-//W3C//DTD SVG 1.1//EN"
 "http://www.w3.org/Graphics/SVG/1.1/DTD/svg11.dtd">
<!-- Generated by graphviz version 2.38.0 (20140413.2041)
 -->
<!-- Title: G Pages: 1 -->
<svg width="991pt" height="2458pt"
 viewBox="0.00 0.00 990.77 2458.00" xmlns="http://www.w3.org/2000/svg" xmlns:xlink="http://www.w3.org/1999/xlink">
<g id="graph0" class="graph" transform="scale(1 1) rotate(0) translate(4 2454)">
<title>G</title>
<polygon fill="white" stroke="none" points="-4,4 -4,-2454 986.766,-2454 986.766,4 -4,4"/>
<g id="clust1" class="cluster"><title>cluster_Global</title>
<path fill="none" stroke="gray" d="M270.828,-314C270.828,-314 962.766,-314 962.766,-314 968.766,-314 974.766,-320 974.766,-326 974.766,-326 974.766,-2430 974.766,-2430 974.766,-2436 968.766,-2442 962.766,-2442 962.766,-2442 270.828,-2442 270.828,-2442 264.828,-2442 258.828,-2436 258.828,-2430 258.828,-2430 258.828,-326 258.828,-326 258.828,-320 264.828,-314 270.828,-314"/>
<text text-anchor="middle" x="616.797" y="-2429.2" font-family="Times New Roman,serif" font-size="11.00" fill="gray">Global</text>
</g>
<g id="clust2" class="cluster"><title>cluster_\Core</title>
<path fill="none" stroke="gray" d="M278.828,-322C278.828,-322 771.766,-322 771.766,-322 777.766,-322 783.766,-328 783.766,-334 783.766,-334 783.766,-2186 783.766,-2186 783.766,-2192 777.766,-2198 771.766,-2198 771.766,-2198 278.828,-2198 278.828,-2198 272.828,-2198 266.828,-2192 266.828,-2186 266.828,-2186 266.828,-334 266.828,-334 266.828,-328 272.828,-322 278.828,-322"/>
<text text-anchor="middle" x="525.297" y="-2185.2" font-family="Times New Roman,serif" font-size="11.00" fill="gray">Core</text>
</g>
<g id="clust3" class="cluster"><title>cluster_\Core\Controller</title>
<path fill="none" stroke="gray" d="M286.828,-2098C286.828,-2098 706.766,-2098 706.766,-2098 712.766,-2098 718.766,-2104 718.766,-2110 718.766,-2110 718.766,-2158 718.766,-2158 718.766,-2164 712.766,-2170 706.766,-2170 706.766,-2170 286.828,-2170 286.828,-2170 280.828,-2170 274.828,-2164 274.828,-2158 274.828,-2158 274.828,-2110 274.828,-2110 274.828,-2104 280.828,-2098 286.828,-2098"/>
<text text-anchor="middle" x="496.797" y="-2157.2" font-family="Times New Roman,serif" font-size="11.00" fill="gray">Controller</text>
</g>
<g id="clust4" class="cluster"><title>cluster_\Core\Web</title>
<path fill="none" stroke="gray" d="M585.266,-1184C585.266,-1184 711.266,-1184 711.266,-1184 717.266,-1184 723.266,-1190 723.266,-1196 723.266,-1196 723.266,-1648 723.266,-1648 723.266,-1654 717.266,-1660 711.266,-1660 711.266,-1660 585.266,-1660 585.266,-1660 579.266,-1660 573.266,-1654 573.266,-1648 573.266,-1648 573.266,-1196 573.266,-1196 573.266,-1190 579.266,-1184 585.266,-1184"/>
<text text-anchor="middle" x="648.266" y="-1647.2" font-family="Times New Roman,serif" font-size="11.00" fill="gray">Web</text>
</g>
<g id="clust5" class="cluster"><title>cluster_\Core\Web\Router</title>
<path fill="none" stroke="gray" d="M593.266,-1398C593.266,-1398 703.266,-1398 703.266,-1398 709.266,-1398 715.266,-1404 715.266,-1410 715.266,-1410 715.266,-1620 715.266,-1620 715.266,-1626 709.266,-1632 703.266,-1632 703.266,-1632 593.266,-1632 593.266,-1632 587.266,-1632 581.266,-1626 581.266,-1620 581.266,-1620 581.266,-1410 581.266,-1410 581.266,-1404 587.266,-1398 593.266,-1398"/>
<text text-anchor="middle" x="648.266" y="-1619.2" font-family="Times New Roman,serif" font-size="11.00" fill="gray">Router</text>
</g>
<g id="clust6" class="cluster"><title>cluster_\Core\Web\Request</title>
<path fill="none" stroke="gray" d="M600.266,-1318C600.266,-1318 696.266,-1318 696.266,-1318 702.266,-1318 708.266,-1324 708.266,-1330 708.266,-1330 708.266,-1378 708.266,-1378 708.266,-1384 702.266,-1390 696.266,-1390 696.266,-1390 600.266,-1390 600.266,-1390 594.266,-1390 588.266,-1384 588.266,-1378 588.266,-1378 588.266,-1330 588.266,-1330 588.266,-1324 594.266,-1318 600.266,-1318"/>
<text text-anchor="middle" x="648.266" y="-1377.2" font-family="Times New Roman,serif" font-size="11.00" fill="gray">Request</text>
</g>
<g id="clust7" class="cluster"><title>cluster_\Core\Web\Server</title>
<path fill="none" stroke="gray" d="M623.766,-1238C623.766,-1238 672.766,-1238 672.766,-1238 678.766,-1238 684.766,-1244 684.766,-1250 684.766,-1250 684.766,-1298 684.766,-1298 684.766,-1304 678.766,-1310 672.766,-1310 672.766,-1310 623.766,-1310 623.766,-1310 617.766,-1310 611.766,-1304 611.766,-1298 611.766,-1298 611.766,-1250 611.766,-1250 611.766,-1244 617.766,-1238 623.766,-1238"/>
<text text-anchor="middle" x="648.266" y="-1297.2" font-family="Times New Roman,serif" font-size="11.00" fill="gray">Server</text>
</g>
<g id="clust8" class="cluster"><title>cluster_\Core\Exception</title>
<path fill="none" stroke="gray" d="M532.766,-510C532.766,-510 763.766,-510 763.766,-510 769.766,-510 775.766,-516 775.766,-522 775.766,-522 775.766,-1164 775.766,-1164 775.766,-1170 769.766,-1176 763.766,-1176 763.766,-1176 532.766,-1176 532.766,-1176 526.766,-1176 520.766,-1170 520.766,-1164 520.766,-1164 520.766,-522 520.766,-522 520.766,-516 526.766,-510 532.766,-510"/>
<text text-anchor="middle" x="648.266" y="-1163.2" font-family="Times New Roman,serif" font-size="11.00" fill="gray">Exception</text>
</g>
<g id="clust9" class="cluster"><title>cluster_\Core\Database</title>
<path fill="none" stroke="gray" d="M300.328,-1856C300.328,-1856 703.266,-1856 703.266,-1856 709.266,-1856 715.266,-1862 715.266,-1868 715.266,-1868 715.266,-2078 715.266,-2078 715.266,-2084 709.266,-2090 703.266,-2090 703.266,-2090 300.328,-2090 300.328,-2090 294.328,-2090 288.328,-2084 288.328,-2078 288.328,-2078 288.328,-1868 288.328,-1868 288.328,-1862 294.328,-1856 300.328,-1856"/>
<text text-anchor="middle" x="501.797" y="-2077.2" font-family="Times New Roman,serif" font-size="11.00" fill="gray">Database</text>
</g>
<g id="clust11" class="cluster"><title>cluster_\Core\Assets</title>
<path fill="none" stroke="gray" d="M300.328,-1668C300.328,-1668 696.266,-1668 696.266,-1668 702.266,-1668 708.266,-1674 708.266,-1680 708.266,-1680 708.266,-1836 708.266,-1836 708.266,-1842 702.266,-1848 696.266,-1848 696.266,-1848 300.328,-1848 300.328,-1848 294.328,-1848 288.328,-1842 288.328,-1836 288.328,-1836 288.328,-1680 288.328,-1680 288.328,-1674 294.328,-1668 300.328,-1668"/>
<text text-anchor="middle" x="498.297" y="-1835.2" font-family="Times New Roman,serif" font-size="11.00" fill="gray">Assets</text>
</g>
<g id="clust10" class="cluster"><title>cluster_\Core\Ajax</title>
<path fill="none" stroke="gray" d="M625.266,-430C625.266,-430 671.266,-430 671.266,-430 677.266,-430 683.266,-436 683.266,-442 683.266,-442 683.266,-490 683.266,-490 683.266,-496 677.266,-502 671.266,-502 671.266,-502 625.266,-502 625.266,-502 619.266,-502 613.266,-496 613.266,-490 613.266,-490 613.266,-442 613.266,-442 613.266,-436 619.266,-430 625.266,-430"/>
<text text-anchor="middle" x="648.266" y="-489.2" font-family="Times New Roman,serif" font-size="11.00" fill="gray">Ajax</text>
</g>
<g id="clust12" class="cluster"><title>cluster_\App</title>
<path fill="none" stroke="gray" d="M592.266,-2206C592.266,-2206 954.766,-2206 954.766,-2206 960.766,-2206 966.766,-2212 966.766,-2218 966.766,-2218 966.766,-2402 966.766,-2402 966.766,-2408 960.766,-2414 954.766,-2414 954.766,-2414 592.266,-2414 592.266,-2414 586.266,-2414 580.266,-2408 580.266,-2402 580.266,-2402 580.266,-2218 580.266,-2218 580.266,-2212 586.266,-2206 592.266,-2206"/>
<text text-anchor="middle" x="773.516" y="-2401.2" font-family="Times New Roman,serif" font-size="11.00" fill="gray">App</text>
</g>
<g id="clust13" class="cluster"><title>cluster_\App\Controller</title>
<path fill="none" stroke="gray" d="M600.266,-2314C600.266,-2314 946.766,-2314 946.766,-2314 952.766,-2314 958.766,-2320 958.766,-2326 958.766,-2326 958.766,-2374 958.766,-2374 958.766,-2380 952.766,-2386 946.766,-2386 946.766,-2386 600.266,-2386 600.266,-2386 594.266,-2386 588.266,-2380 588.266,-2374 588.266,-2374 588.266,-2326 588.266,-2326 588.266,-2320 594.266,-2314 600.266,-2314"/>
<text text-anchor="middle" x="773.516" y="-2373.2" font-family="Times New Roman,serif" font-size="11.00" fill="gray">Controller</text>
</g>
<!-- \\Core\\Controller\\Controller -->
<g id="node1" class="node"><title>\\Core\\Controller\\Controller</title>
<polygon fill="none" stroke="black" points="366.828,-2142 282.828,-2142 282.828,-2106 366.828,-2106 366.828,-2142"/>
<text text-anchor="middle" x="324.828" y="-2121.2" font-family="Courier,monospace" font-size="11.00">Controller</text>
</g>
<!-- \\Core\\Controller\\AssetsController -->
<g id="node2" class="node"><title>\\Core\\Controller\\AssetsController</title>
<polygon fill="none" stroke="black" points="710.766,-2142 585.766,-2142 585.766,-2106 710.766,-2106 710.766,-2142"/>
<text text-anchor="middle" x="648.266" y="-2121.2" font-family="Courier,monospace" font-size="11.00">AssetsController</text>
</g>
<!-- \\Core\\Controller\\AssetsController&#45;&gt;\\Core\\Controller\\Controller -->
<g id="edge12" class="edge"><title>\\Core\\Controller\\AssetsController&#45;&gt;\\Core\\Controller\\Controller</title>
<path fill="none" stroke="black" d="M585.67,-2124C525.262,-2124 434.203,-2124 377.473,-2124"/>
<polygon fill="none" stroke="black" points="377.295,-2120.5 367.295,-2124 377.294,-2127.5 377.295,-2120.5"/>
</g>
<!-- \\Core\\Web\\Router\\Route -->
<g id="node3" class="node"><title>\\Core\\Web\\Router\\Route</title>
<polygon fill="none" stroke="black" points="675.266,-1604 621.266,-1604 621.266,-1568 675.266,-1568 675.266,-1604"/>
<text text-anchor="middle" x="648.266" y="-1583.2" font-family="Courier,monospace" font-size="11.00">Route</text>
</g>
<!-- \\Core\\Web\\Router\\Router -->
<g id="node4" class="node"><title>\\Core\\Web\\Router\\Router</title>
<polygon fill="none" stroke="black" points="676.766,-1550 619.766,-1550 619.766,-1514 676.766,-1514 676.766,-1550"/>
<text text-anchor="middle" x="648.266" y="-1529.2" font-family="Courier,monospace" font-size="11.00">Router</text>
</g>
<!-- \\Core\\Web\\Router\\RouteCollection -->
<g id="node5" class="node"><title>\\Core\\Web\\Router\\RouteCollection</title>
<polygon fill="none" stroke="black" points="707.266,-1496 589.266,-1496 589.266,-1460 707.266,-1460 707.266,-1496"/>
<text text-anchor="middle" x="648.266" y="-1475.2" font-family="Courier,monospace" font-size="11.00">RouteCollection</text>
</g>
<!-- \\SplObjectStorage -->
<g id="node40" class="node"><title>\\SplObjectStorage</title>
<ellipse fill="none" stroke="black" cx="324.828" cy="-72" rx="77.1866" ry="18"/>
<text text-anchor="middle" x="324.828" y="-68.3" font-family="Times New Roman,serif" font-size="14.00" fill="gray">\SplObjectStorage</text>
</g>
<!-- \\Core\\Web\\Router\\RouteCollection&#45;&gt;\\SplObjectStorage -->
<g id="edge10" class="edge"><title>\\Core\\Web\\Router\\RouteCollection&#45;&gt;\\SplObjectStorage</title>
<path fill="none" stroke="black" d="M588.974,-1480.31C564.232,-1478 537.334,-1470.52 520.766,-1451 423.433,-1336.35 554.495,-213.308 456.766,-99 445.355,-85.6536 429.254,-77.8375 412.23,-73.4486"/>
<polygon fill="none" stroke="black" points="412.645,-69.9569 402.129,-71.2446 411.153,-76.796 412.645,-69.9569"/>
</g>
<!-- \\Core\\Web\\Router\\RouterConfig -->
<g id="node6" class="node"><title>\\Core\\Web\\Router\\RouterConfig</title>
<polygon fill="none" stroke="black" points="697.266,-1442 599.266,-1442 599.266,-1406 697.266,-1406 697.266,-1442"/>
<text text-anchor="middle" x="648.266" y="-1421.2" font-family="Courier,monospace" font-size="11.00">RouterConfig</text>
</g>
<!-- \\Core\\Web\\Request\\RequestMethod -->
<g id="node7" class="node"><title>\\Core\\Web\\Request\\RequestMethod</title>
<polygon fill="none" stroke="black" points="700.266,-1362 596.266,-1362 596.266,-1326 700.266,-1326 700.266,-1362"/>
<text text-anchor="middle" x="648.266" y="-1341.2" font-family="Courier,monospace" font-size="11.00">RequestMethod</text>
</g>
<!-- \\Core\\Web\\Server\\Server -->
<g id="node8" class="node"><title>\\Core\\Web\\Server\\Server</title>
<polygon fill="none" stroke="black" points="676.766,-1282 619.766,-1282 619.766,-1246 676.766,-1246 676.766,-1282"/>
<text text-anchor="middle" x="648.266" y="-1261.2" font-family="Courier,monospace" font-size="11.00">Server</text>
</g>
<!-- \\Core\\Web\\Url -->
<g id="node9" class="node"><title>\\Core\\Web\\Url</title>
<polygon fill="none" stroke="black" points="675.266,-1228 621.266,-1228 621.266,-1192 675.266,-1192 675.266,-1228"/>
<text text-anchor="middle" x="648.266" y="-1207.2" font-family="Courier,monospace" font-size="11.00">Url</text>
</g>
<!-- \\Core\\Exception\\ParisMethodMissingException -->
<g id="node10" class="node"><title>\\Core\\Exception\\ParisMethodMissingException</title>
<polygon fill="none" stroke="black" points="747.766,-1040 548.766,-1040 548.766,-1004 747.766,-1004 747.766,-1040"/>
<text text-anchor="middle" x="648.266" y="-1019.2" font-family="Courier,monospace" font-size="11.00">ParisMethodMissingException</text>
</g>
<!-- \\Exception -->
<g id="node38" class="node"><title>\\Exception</title>
<ellipse fill="none" stroke="black" cx="324.828" cy="-18" rx="50.0912" ry="18"/>
<text text-anchor="middle" x="324.828" y="-14.3" font-family="Times New Roman,serif" font-size="14.00" fill="gray">\Exception</text>
</g>
<!-- \\Core\\Exception\\ParisMethodMissingException&#45;&gt;\\Exception -->
<g id="edge2" class="edge"><title>\\Core\\Exception\\ParisMethodMissingException&#45;&gt;\\Exception</title>
<path fill="none" stroke="black" d="M548.561,-1014.57C537.984,-1010.06 528.338,-1003.74 520.766,-995 382.221,-835.076 595.864,-204.443 456.766,-45 438.985,-24.6183 410.26,-17.1976 384.24,-15.1613"/>
<polygon fill="none" stroke="black" points="384.225,-11.6556 374.052,-14.6173 383.851,-18.6456 384.225,-11.6556"/>
</g>
<!-- \\Core\\Exception\\InvalidArgumentException -->
<g id="node11" class="node"><title>\\Core\\Exception\\InvalidArgumentException</title>
<polygon fill="none" stroke="black" points="737.766,-986 558.766,-986 558.766,-950 737.766,-950 737.766,-986"/>
<text text-anchor="middle" x="648.266" y="-965.2" font-family="Courier,monospace" font-size="11.00">InvalidArgumentException</text>
</g>
<!-- \\Core\\Exception\\InvalidArgumentException&#45;&gt;\\Exception -->
<g id="edge3" class="edge"><title>\\Core\\Exception\\InvalidArgumentException&#45;&gt;\\Exception</title>
<path fill="none" stroke="black" d="M558.693,-964.244C544.211,-959.72 530.714,-952.437 520.766,-941 389.755,-790.389 588.297,-195.156 456.766,-45 438.944,-24.6543 410.216,-17.2368 384.203,-15.1933"/>
<polygon fill="none" stroke="black" points="384.193,-11.6878 374.019,-14.646 383.817,-18.6777 384.193,-11.6878"/>
</g>
<!-- \\Core\\Exception\\IdiormMethodMissingException -->
<g id="node12" class="node"><title>\\Core\\Exception\\IdiormMethodMissingException</title>
<polygon fill="none" stroke="black" points="751.266,-932 545.266,-932 545.266,-896 751.266,-896 751.266,-932"/>
<text text-anchor="middle" x="648.266" y="-911.2" font-family="Courier,monospace" font-size="11.00">IdiormMethodMissingException</text>
</g>
<!-- \\Core\\Exception\\IdiormMethodMissingException&#45;&gt;\\Exception -->
<g id="edge6" class="edge"><title>\\Core\\Exception\\IdiormMethodMissingException&#45;&gt;\\Exception</title>
<path fill="none" stroke="black" d="M544.971,-904.862C535.819,-900.506 527.489,-894.694 520.766,-887 397.288,-745.699 580.733,-185.872 456.766,-45 438.965,-24.7719 410.383,-17.3374 384.457,-15.2531"/>
<polygon fill="none" stroke="black" points="384.484,-11.7492 374.305,-14.6884 384.095,-18.7384 384.484,-11.7492"/>
</g>
<!-- \\Core\\Exception\\IdiormStringException -->
<g id="node13" class="node"><title>\\Core\\Exception\\IdiormStringException</title>
<polygon fill="none" stroke="black" points="727.266,-878 569.266,-878 569.266,-842 727.266,-842 727.266,-878"/>
<text text-anchor="middle" x="648.266" y="-857.2" font-family="Courier,monospace" font-size="11.00">IdiormStringException</text>
</g>
<!-- \\Core\\Exception\\IdiormStringException&#45;&gt;\\Exception -->
<g id="edge7" class="edge"><title>\\Core\\Exception\\IdiormStringException&#45;&gt;\\Exception</title>
<path fill="none" stroke="black" d="M569.217,-858.933C550.901,-854.858 533.141,-847.088 520.766,-833 404.818,-701.007 573.171,-176.59 456.766,-45 438.913,-24.818 410.325,-17.3878 384.411,-15.2944"/>
<polygon fill="none" stroke="black" points="384.443,-11.7908 374.263,-14.7255 384.051,-18.7799 384.443,-11.7908"/>
</g>
<!-- \\Core\\Exception\\InvalidKeyException -->
<g id="node14" class="node"><title>\\Core\\Exception\\InvalidKeyException</title>
<polygon fill="none" stroke="black" points="720.766,-824 575.766,-824 575.766,-788 720.766,-788 720.766,-824"/>
<text text-anchor="middle" x="648.266" y="-803.2" font-family="Courier,monospace" font-size="11.00">InvalidKeyException</text>
</g>
<!-- \\Core\\Exception\\InvalidKeyException&#45;&gt;\\Exception -->
<g id="edge9" class="edge"><title>\\Core\\Exception\\InvalidKeyException&#45;&gt;\\Exception</title>
<path fill="none" stroke="black" d="M575.54,-806.134C555.072,-802.492 534.595,-794.649 520.766,-779 412.345,-656.312 565.611,-167.312 456.766,-45 438.853,-24.8711 410.26,-17.4458 384.357,-15.3419"/>
<polygon fill="none" stroke="black" points="384.397,-11.8387 374.215,-14.7682 384.001,-18.8275 384.397,-11.8387"/>
</g>
<!-- \\Core\\Exception\\InvalidDatabaseTypeException -->
<g id="node15" class="node"><title>\\Core\\Exception\\InvalidDatabaseTypeException</title>
<polygon fill="none" stroke="black" points="751.266,-770 545.266,-770 545.266,-734 751.266,-734 751.266,-770"/>
<text text-anchor="middle" x="648.266" y="-749.2" font-family="Courier,monospace" font-size="11.00">InvalidDatabaseTypeException</text>
</g>
<!-- \\Core\\Exception\\InvalidDatabaseTypeException&#45;&gt;\\Exception -->
<g id="edge19" class="edge"><title>\\Core\\Exception\\InvalidDatabaseTypeException&#45;&gt;\\Exception</title>
<path fill="none" stroke="black" d="M545.111,-742.738C535.932,-738.406 527.558,-732.633 520.766,-725 419.869,-611.613 558.055,-158.037 456.766,-45 438.784,-24.9327 410.185,-17.5132 384.295,-15.3972"/>
<polygon fill="none" stroke="black" points="384.343,-11.8943 374.16,-14.8177 383.943,-18.8829 384.343,-11.8943"/>
</g>
<!-- \\Core\\Exception\\NotAnArrayException -->
<g id="node16" class="node"><title>\\Core\\Exception\\NotAnArrayException</title>
<polygon fill="none" stroke="black" points="720.766,-716 575.766,-716 575.766,-680 720.766,-680 720.766,-716"/>
<text text-anchor="middle" x="648.266" y="-695.2" font-family="Courier,monospace" font-size="11.00">NotAnArrayException</text>
</g>
<!-- \\Core\\Exception\\NotAnArrayException&#45;&gt;\\Exception -->
<g id="edge20" class="edge"><title>\\Core\\Exception\\NotAnArrayException&#45;&gt;\\Exception</title>
<path fill="none" stroke="black" d="M575.681,-698.008C555.22,-694.36 534.712,-686.546 520.766,-671 334.011,-462.819 644.241,-252.533 456.766,-45 438.772,-25.0812 410.314,-17.6489 384.518,-15.4866"/>
<polygon fill="none" stroke="black" points="384.607,-11.9858 374.417,-14.8872 384.192,-18.9735 384.607,-11.9858"/>
</g>
<!-- \\Core\\Exception\\NotAnAssociativeArrayException -->
<g id="node17" class="node"><title>\\Core\\Exception\\NotAnAssociativeArrayException</title>
<polygon fill="none" stroke="black" points="757.766,-662 538.766,-662 538.766,-626 757.766,-626 757.766,-662"/>
<text text-anchor="middle" x="648.266" y="-641.2" font-family="Courier,monospace" font-size="11.00">NotAnAssociativeArrayException</text>
</g>
<!-- \\Core\\Exception\\NotAnAssociativeArrayException&#45;&gt;\\Exception -->
<g id="edge21" class="edge"><title>\\Core\\Exception\\NotAnAssociativeArrayException&#45;&gt;\\Exception</title>
<path fill="none" stroke="black" d="M538.72,-631.235C532.063,-627.427 525.967,-622.742 520.766,-617 349.04,-427.4 629.147,-234.004 456.766,-45 438.677,-25.1673 410.21,-17.7433 384.433,-15.5642"/>
<polygon fill="none" stroke="black" points="384.532,-12.064 374.34,-14.957 384.112,-19.0514 384.532,-12.064"/>
</g>
<!-- \\Core\\Exception\\NotAnAssociativeArrayKeyException -->
<g id="node18" class="node"><title>\\Core\\Exception\\NotAnAssociativeArrayKeyException</title>
<polygon fill="none" stroke="black" points="767.766,-608 528.766,-608 528.766,-572 767.766,-572 767.766,-608"/>
<text text-anchor="middle" x="648.266" y="-587.2" font-family="Courier,monospace" font-size="11.00">NotAnAssociativeArrayKeyException</text>
</g>
<!-- \\Core\\Exception\\NotAnAssociativeArrayKeyException&#45;&gt;\\Exception -->
<g id="edge22" class="edge"><title>\\Core\\Exception\\NotAnAssociativeArrayKeyException&#45;&gt;\\Exception</title>
<path fill="none" stroke="black" d="M530.697,-571.911C527.132,-569.27 523.8,-566.311 520.766,-563 364.055,-391.965 614.069,-215.491 456.766,-45 438.564,-25.2716 410.085,-17.8578 384.33,-15.6584"/>
<polygon fill="none" stroke="black" points="384.443,-12.1588 374.248,-15.0415 384.016,-19.1458 384.443,-12.1588"/>
</g>
<!-- \\Core\\Exception\\NotAStringException -->
<g id="node19" class="node"><title>\\Core\\Exception\\NotAStringException</title>
<polygon fill="none" stroke="black" points="720.766,-554 575.766,-554 575.766,-518 720.766,-518 720.766,-554"/>
<text text-anchor="middle" x="648.266" y="-533.2" font-family="Courier,monospace" font-size="11.00">NotAStringException</text>
</g>
<!-- \\Core\\Exception\\NotAStringException&#45;&gt;\\Exception -->
<g id="edge23" class="edge"><title>\\Core\\Exception\\NotAStringException&#45;&gt;\\Exception</title>
<path fill="none" stroke="black" d="M575.566,-533.822C555.223,-529.648 534.812,-521.447 520.766,-506 381.601,-352.959 598.173,-195.972 456.766,-45 438.486,-25.4836 410.141,-18.0649 384.492,-15.8078"/>
<polygon fill="none" stroke="black" points="384.653,-12.3111 374.45,-15.1656 384.206,-19.2968 384.653,-12.3111"/>
</g>
<!-- \\Core\\Exception\\UnknownDirException -->
<g id="node20" class="node"><title>\\Core\\Exception\\UnknownDirException</title>
<polygon fill="none" stroke="black" points="720.766,-1148 575.766,-1148 575.766,-1112 720.766,-1112 720.766,-1148"/>
<text text-anchor="middle" x="648.266" y="-1127.2" font-family="Courier,monospace" font-size="11.00">UnknownDirException</text>
</g>
<!-- \\Core\\Exception\\UnknownDirException&#45;&gt;\\Exception -->
<g id="edge24" class="edge"><title>\\Core\\Exception\\UnknownDirException&#45;&gt;\\Exception</title>
<path fill="none" stroke="black" d="M575.616,-1130.41C555.025,-1126.81 534.46,-1118.92 520.766,-1103 367.149,-924.446 611,-223.02 456.766,-45 439.055,-24.5576 410.337,-17.1313 384.302,-15.1072"/>
<polygon fill="none" stroke="black" points="384.279,-11.6012 374.108,-14.5689 383.91,-18.5914 384.279,-11.6012"/>
</g>
<!-- \\Core\\Exception\\UnknownTypeException -->
<g id="node21" class="node"><title>\\Core\\Exception\\UnknownTypeException</title>
<polygon fill="none" stroke="black" points="724.266,-1094 572.266,-1094 572.266,-1058 724.266,-1058 724.266,-1094"/>
<text text-anchor="middle" x="648.266" y="-1073.2" font-family="Courier,monospace" font-size="11.00">UnknownTypeException</text>
</g>
<!-- \\Core\\Exception\\UnknownTypeException&#45;&gt;\\Exception -->
<g id="edge25" class="edge"><title>\\Core\\Exception\\UnknownTypeException&#45;&gt;\\Exception</title>
<path fill="none" stroke="black" d="M572.015,-1075.71C552.661,-1071.82 533.678,-1063.96 520.766,-1049 374.686,-879.762 603.431,-213.731 456.766,-45 439.022,-24.5863 410.301,-17.1627 384.272,-15.1328"/>
<polygon fill="none" stroke="black" points="384.253,-11.6269 374.082,-14.5918 383.882,-18.6171 384.253,-11.6269"/>
</g>
<!-- \\Core\\Database\\IdiormString -->
<g id="node22" class="node"><title>\\Core\\Database\\IdiormString</title>
<polygon fill="none" stroke="black" points="697.266,-2062 599.266,-2062 599.266,-2026 697.266,-2026 697.266,-2062"/>
<text text-anchor="middle" x="648.266" y="-2041.2" font-family="Courier,monospace" font-size="11.00">IdiormString</text>
</g>
<!-- \\Core\\Database\\Model -->
<g id="node23" class="node"><title>\\Core\\Database\\Model</title>
<polygon fill="none" stroke="black" points="675.266,-2008 621.266,-2008 621.266,-1972 675.266,-1972 675.266,-2008"/>
<text text-anchor="middle" x="648.266" y="-1987.2" font-family="Courier,monospace" font-size="11.00">Model</text>
</g>
<!-- \\Core\\Database\\Idiorm -->
<g id="node24" class="node"><title>\\Core\\Database\\Idiorm</title>
<polygon fill="none" stroke="black" points="353.328,-1954 296.328,-1954 296.328,-1918 353.328,-1918 353.328,-1954"/>
<text text-anchor="middle" x="324.828" y="-1933.2" font-family="Courier,monospace" font-size="11.00">Idiorm</text>
</g>
<!-- \\ArrayAccess -->
<g id="node39" class="node"><title>\\ArrayAccess</title>
<ellipse fill="none" stroke="black" cx="60.4446" cy="-1936" rx="60.3893" ry="18"/>
<text text-anchor="middle" x="60.4446" y="-1932.3" font-family="Times New Roman,serif" font-size="14.00" fill="gray">\ArrayAccess</text>
</g>
<!-- \\Core\\Database\\Idiorm&#45;&gt;\\ArrayAccess -->
<g id="edge8" class="edge"><title>\\Core\\Database\\Idiorm&#45;&gt;\\ArrayAccess</title>
<path fill="none" stroke="black" stroke-dasharray="1,5" d="M296.244,-1936C257.431,-1936 185.401,-1936 131.314,-1936"/>
<polygon fill="none" stroke="black" points="131.094,-1932.5 121.094,-1936 131.094,-1939.5 131.094,-1932.5"/>
</g>
<!-- \\Core\\Database\\ParisWrapper -->
<g id="node25" class="node"><title>\\Core\\Database\\ParisWrapper</title>
<polygon fill="none" stroke="black" points="697.266,-1954 599.266,-1954 599.266,-1918 697.266,-1918 697.266,-1954"/>
<text text-anchor="middle" x="648.266" y="-1933.2" font-family="Courier,monospace" font-size="11.00">ParisWrapper</text>
</g>
<!-- \\Core\\Database\\ParisWrapper&#45;&gt;\\Core\\Database\\Idiorm -->
<g id="edge11" class="edge"><title>\\Core\\Database\\ParisWrapper&#45;&gt;\\Core\\Database\\Idiorm</title>
<path fill="none" stroke="black" d="M599.143,-1936C534.842,-1936 422.217,-1936 363.638,-1936"/>
<polygon fill="none" stroke="black" points="363.353,-1932.5 353.353,-1936 363.353,-1939.5 363.353,-1932.5"/>
</g>
<!-- \\Core\\Database\\IdiormResultSet -->
<g id="node26" class="node"><title>\\Core\\Database\\IdiormResultSet</title>
<polygon fill="none" stroke="black" points="707.266,-1900 589.266,-1900 589.266,-1864 707.266,-1864 707.266,-1900"/>
<text text-anchor="middle" x="648.266" y="-1879.2" font-family="Courier,monospace" font-size="11.00">IdiormResultSet</text>
</g>
<!-- \\Core\\Database\\Countable -->
<g id="node41" class="node"><title>\\Core\\Database\\Countable</title>
<ellipse fill="none" stroke="black" cx="324.828" cy="-126" rx="106.681" ry="18"/>
<text text-anchor="middle" x="324.828" y="-122.3" font-family="Times New Roman,serif" font-size="14.00" fill="gray">\Core\Database\Countable</text>
</g>
<!-- \\Core\\Database\\IdiormResultSet&#45;&gt;\\Core\\Database\\Countable -->
<g id="edge13" class="edge"><title>\\Core\\Database\\IdiormResultSet&#45;&gt;\\Core\\Database\\Countable</title>
<path fill="none" stroke="black" stroke-dasharray="1,5" d="M589.084,-1882.94C564.209,-1880.08 537.172,-1871.97 520.766,-1852 400.838,-1706.04 578.834,-297.177 456.766,-153 450.708,-145.845 443.302,-140.276 435.125,-135.97"/>
<polygon fill="none" stroke="black" points="436.525,-132.762 425.976,-131.778 433.609,-139.125 436.525,-132.762"/>
</g>
<!-- \\Core\\Database\\IteratorAggregate -->
<g id="node42" class="node"><title>\\Core\\Database\\IteratorAggregate</title>
<ellipse fill="none" stroke="black" cx="324.828" cy="-288" rx="131.877" ry="18"/>
<text text-anchor="middle" x="324.828" y="-284.3" font-family="Times New Roman,serif" font-size="14.00" fill="gray">\Core\Database\IteratorAggregate</text>
</g>
<!-- \\Core\\Database\\IdiormResultSet&#45;&gt;\\Core\\Database\\IteratorAggregate -->
<g id="edge14" class="edge"><title>\\Core\\Database\\IdiormResultSet&#45;&gt;\\Core\\Database\\IteratorAggregate</title>
<path fill="none" stroke="black" stroke-dasharray="1,5" d="M589.212,-1882.19C564.671,-1879.13 537.868,-1871.07 520.766,-1852 413.591,-1732.47 339.092,-517.726 327.428,-316.243"/>
<polygon fill="none" stroke="black" points="330.917,-315.947 326.848,-306.164 323.929,-316.349 330.917,-315.947"/>
</g>
<!-- \\Core\\Database\\ArrayAccess -->
<g id="node43" class="node"><title>\\Core\\Database\\ArrayAccess</title>
<ellipse fill="none" stroke="black" cx="324.828" cy="-234" rx="116.18" ry="18"/>
<text text-anchor="middle" x="324.828" y="-230.3" font-family="Times New Roman,serif" font-size="14.00" fill="gray">\Core\Database\ArrayAccess</text>
</g>
<!-- \\Core\\Database\\IdiormResultSet&#45;&gt;\\Core\\Database\\ArrayAccess -->
<g id="edge15" class="edge"><title>\\Core\\Database\\IdiormResultSet&#45;&gt;\\Core\\Database\\ArrayAccess</title>
<path fill="none" stroke="black" stroke-dasharray="1,5" d="M589.107,-1882.92C564.237,-1880.05 537.198,-1871.95 520.766,-1852 408.276,-1715.45 571.258,-395.88 456.766,-261 451.809,-255.161 445.954,-250.378 439.516,-246.477"/>
<polygon fill="none" stroke="black" points="440.884,-243.242 430.403,-241.687 437.626,-249.438 440.884,-243.242"/>
</g>
<!-- \\Core\\Database\\Serializable -->
<g id="node44" class="node"><title>\\Core\\Database\\Serializable</title>
<ellipse fill="none" stroke="black" cx="324.828" cy="-180" rx="109.681" ry="18"/>
<text text-anchor="middle" x="324.828" y="-176.3" font-family="Times New Roman,serif" font-size="14.00" fill="gray">\Core\Database\Serializable</text>
</g>
<!-- \\Core\\Database\\IdiormResultSet&#45;&gt;\\Core\\Database\\Serializable -->
<g id="edge16" class="edge"><title>\\Core\\Database\\IdiormResultSet&#45;&gt;\\Core\\Database\\Serializable</title>
<path fill="none" stroke="black" stroke-dasharray="1,5" d="M589.095,-1882.93C564.222,-1880.06 537.185,-1871.96 520.766,-1852 404.557,-1710.74 575.046,-346.528 456.766,-207 451.102,-200.319 444.264,-195.021 436.719,-190.844"/>
<polygon fill="none" stroke="black" points="438.095,-187.622 427.567,-186.438 435.059,-193.929 438.095,-187.622"/>
</g>
<!-- \\Core\\Ajax\\Ajax -->
<g id="node27" class="node"><title>\\Core\\Ajax\\Ajax</title>
<polygon fill="none" stroke="black" points="675.266,-474 621.266,-474 621.266,-438 675.266,-438 675.266,-474"/>
<text text-anchor="middle" x="648.266" y="-453.2" font-family="Courier,monospace" font-size="11.00">Ajax</text>
</g>
<!-- \\Core\\Assets\\Assets -->
<g id="node28" class="node"><title>\\Core\\Assets\\Assets</title>
<polygon fill="none" stroke="black" points="353.328,-1793 296.328,-1793 296.328,-1757 353.328,-1757 353.328,-1793"/>
<text text-anchor="middle" x="324.828" y="-1772.2" font-family="Courier,monospace" font-size="11.00">Assets</text>
</g>
<!-- \\Core\\Assets\\AssetsCSS -->
<g id="node29" class="node"><title>\\Core\\Assets\\AssetsCSS</title>
<polygon fill="none" stroke="black" points="686.766,-1820 609.766,-1820 609.766,-1784 686.766,-1784 686.766,-1820"/>
<text text-anchor="middle" x="648.266" y="-1799.2" font-family="Courier,monospace" font-size="11.00">AssetsCSS</text>
</g>
<!-- \\Core\\Assets\\AssetsCSS&#45;&gt;\\Core\\Assets\\Assets -->
<g id="edge17" class="edge"><title>\\Core\\Assets\\AssetsCSS&#45;&gt;\\Core\\Assets\\Assets</title>
<path fill="none" stroke="black" d="M609.764,-1798.85C548.082,-1793.67 425.887,-1783.4 363.861,-1778.19"/>
<polygon fill="none" stroke="black" points="363.981,-1774.69 353.723,-1777.34 363.395,-1781.67 363.981,-1774.69"/>
</g>
<!-- \\Core\\Assets\\AssetsJS -->
<g id="node30" class="node"><title>\\Core\\Assets\\AssetsJS</title>
<polygon fill="none" stroke="black" points="683.766,-1766 612.766,-1766 612.766,-1730 683.766,-1730 683.766,-1766"/>
<text text-anchor="middle" x="648.266" y="-1745.2" font-family="Courier,monospace" font-size="11.00">AssetsJS</text>
</g>
<!-- \\Core\\Assets\\AssetsJS&#45;&gt;\\Core\\Assets\\Assets -->
<g id="edge18" class="edge"><title>\\Core\\Assets\\AssetsJS&#45;&gt;\\Core\\Assets\\Assets</title>
<path fill="none" stroke="black" d="M612.561,-1750.92C551.791,-1756.02 426.606,-1766.53 363.684,-1771.82"/>
<polygon fill="none" stroke="black" points="363.085,-1768.36 353.413,-1772.68 363.671,-1775.33 363.085,-1768.36"/>
</g>
<!-- \\Core\\Assets\\AssetsManager -->
<g id="node31" class="node"><title>\\Core\\Assets\\AssetsManager</title>
<polygon fill="none" stroke="black" points="700.266,-1712 596.266,-1712 596.266,-1676 700.266,-1676 700.266,-1712"/>
<text text-anchor="middle" x="648.266" y="-1691.2" font-family="Courier,monospace" font-size="11.00">AssetsManager</text>
</g>
<!-- \\Core\\Autoloader -->
<g id="node32" class="node"><title>\\Core\\Autoloader</title>
<polygon fill="none" stroke="black" points="690.266,-420 606.266,-420 606.266,-384 690.266,-384 690.266,-420"/>
<text text-anchor="middle" x="648.266" y="-399.2" font-family="Courier,monospace" font-size="11.00">Autoloader</text>
</g>
<!-- \\Core\\App -->
<g id="node33" class="node"><title>\\Core\\App</title>
<polygon fill="none" stroke="black" points="675.266,-366 621.266,-366 621.266,-330 675.266,-330 675.266,-366"/>
<text text-anchor="middle" x="648.266" y="-345.2" font-family="Courier,monospace" font-size="11.00">App</text>
</g>
<!-- \\App\\Controller\\AppController -->
<g id="node34" class="node"><title>\\App\\Controller\\AppController</title>
<polygon fill="none" stroke="black" points="700.266,-2358 596.266,-2358 596.266,-2322 700.266,-2322 700.266,-2358"/>
<text text-anchor="middle" x="648.266" y="-2337.2" font-family="Courier,monospace" font-size="11.00">AppController</text>
</g>
<!-- \\App\\Controller\\AppController&#45;&gt;\\Core\\Controller\\Controller -->
<g id="edge1" class="edge"><title>\\App\\Controller\\AppController&#45;&gt;\\Core\\Controller\\Controller</title>
<path fill="none" stroke="black" d="M620.413,-2321.96C562.625,-2283.12 426.46,-2191.62 361.507,-2147.98"/>
<polygon fill="none" stroke="black" points="363.082,-2144.82 352.83,-2142.15 359.178,-2150.63 363.082,-2144.82"/>
</g>
<!-- \\App\\Controller\\SiteController -->
<g id="node35" class="node"><title>\\App\\Controller\\SiteController</title>
<polygon fill="none" stroke="black" points="950.766,-2358 839.766,-2358 839.766,-2322 950.766,-2322 950.766,-2358"/>
<text text-anchor="middle" x="895.266" y="-2337.2" font-family="Courier,monospace" font-size="11.00">SiteController</text>
</g>
<!-- \\App\\Controller\\SiteController&#45;&gt;\\App\\Controller\\AppController -->
<g id="edge4" class="edge"><title>\\App\\Controller\\SiteController&#45;&gt;\\App\\Controller\\AppController</title>
<path fill="none" stroke="black" d="M839.588,-2340C801.316,-2340 750.147,-2340 710.504,-2340"/>
<polygon fill="none" stroke="black" points="710.43,-2336.5 700.43,-2340 710.429,-2343.5 710.43,-2336.5"/>
</g>
<!-- \\App\\Autoloader -->
<g id="node36" class="node"><title>\\App\\Autoloader</title>
<polygon fill="none" stroke="black" points="937.266,-2304 853.266,-2304 853.266,-2268 937.266,-2268 937.266,-2304"/>
<text text-anchor="middle" x="895.266" y="-2283.2" font-family="Courier,monospace" font-size="11.00">Autoloader</text>
</g>
<!-- \\App\\App -->
<g id="node37" class="node"><title>\\App\\App</title>
<polygon fill="none" stroke="black" points="922.266,-2250 868.266,-2250 868.266,-2214 922.266,-2214 922.266,-2250"/>
<text text-anchor="middle" x="895.266" y="-2229.2" font-family="Courier,monospace" font-size="11.00">App</text>
</g>
<!-- \\App\\App&#45;&gt;\\Core\\App -->
<g id="edge5" class="edge"><title>\\App\\App&#45;&gt;\\Core\\App</title>
<path fill="none" stroke="black" d="M893.815,-2213.8C889.094,-2026.08 847.565,-448.322 783.766,-375 759.818,-347.477 716.372,-343.225 685.336,-344.249"/>
<polygon fill="none" stroke="black" points="685.137,-340.754 675.333,-344.772 685.502,-347.745 685.137,-340.754"/>
</g>
</g>
</svg>
