<?xml version="1.0" encoding="UTF-8" standalone="no"?>
<!DOCTYPE svg PUBLIC "-//W3C//DTD SVG 1.1//EN"
 "http://www.w3.org/Graphics/SVG/1.1/DTD/svg11.dtd">
<!-- Generated by graphviz version 2.38.0 (20140413.2041)
 -->
<!-- Title: G Pages: 1 -->
<svg width="958pt" height="1910pt"
 viewBox="0.00 0.00 957.77 1910.00" xmlns="http://www.w3.org/2000/svg" xmlns:xlink="http://www.w3.org/1999/xlink">
<g id="graph0" class="graph" transform="scale(1 1) rotate(0) translate(4 1906)">
<title>G</title>
<polygon fill="white" stroke="none" points="-4,4 -4,-1906 953.766,-1906 953.766,4 -4,4"/>
<g id="clust1" class="cluster"><title>cluster_Global</title>
<path fill="none" stroke="gray" d="M270.828,-314C270.828,-314 929.766,-314 929.766,-314 935.766,-314 941.766,-320 941.766,-326 941.766,-326 941.766,-1882 941.766,-1882 941.766,-1888 935.766,-1894 929.766,-1894 929.766,-1894 270.828,-1894 270.828,-1894 264.828,-1894 258.828,-1888 258.828,-1882 258.828,-1882 258.828,-326 258.828,-326 258.828,-320 264.828,-314 270.828,-314"/>
<text text-anchor="middle" x="600.297" y="-1881.2" font-family="Times New Roman,serif" font-size="11.00" fill="gray">Global</text>
</g>
<g id="clust2" class="cluster"><title>cluster_\Core</title>
<path fill="none" stroke="gray" d="M278.828,-322C278.828,-322 738.766,-322 738.766,-322 744.766,-322 750.766,-328 750.766,-334 750.766,-334 750.766,-1638 750.766,-1638 750.766,-1644 744.766,-1650 738.766,-1650 738.766,-1650 278.828,-1650 278.828,-1650 272.828,-1650 266.828,-1644 266.828,-1638 266.828,-1638 266.828,-334 266.828,-334 266.828,-328 272.828,-322 278.828,-322"/>
<text text-anchor="middle" x="508.797" y="-1637.2" font-family="Times New Roman,serif" font-size="11.00" fill="gray">Core</text>
</g>
<g id="clust6" class="cluster"><title>cluster_\Core\Controller</title>
<path fill="none" stroke="gray" d="M286.828,-1550C286.828,-1550 690.266,-1550 690.266,-1550 696.266,-1550 702.266,-1556 702.266,-1562 702.266,-1562 702.266,-1610 702.266,-1610 702.266,-1616 696.266,-1622 690.266,-1622 690.266,-1622 286.828,-1622 286.828,-1622 280.828,-1622 274.828,-1616 274.828,-1610 274.828,-1610 274.828,-1562 274.828,-1562 274.828,-1556 280.828,-1550 286.828,-1550"/>
<text text-anchor="middle" x="488.547" y="-1609.2" font-family="Times New Roman,serif" font-size="11.00" fill="gray">Controller</text>
</g>
<g id="clust3" class="cluster"><title>cluster_\Core\Fig</title>
<path fill="none" stroke="gray" d="M537.266,-1398C537.266,-1398 726.266,-1398 726.266,-1398 732.266,-1398 738.266,-1404 738.266,-1410 738.266,-1410 738.266,-1530 738.266,-1530 738.266,-1536 732.266,-1542 726.266,-1542 726.266,-1542 537.266,-1542 537.266,-1542 531.266,-1542 525.266,-1536 525.266,-1530 525.266,-1530 525.266,-1410 525.266,-1410 525.266,-1404 531.266,-1398 537.266,-1398"/>
<text text-anchor="middle" x="631.766" y="-1529.2" font-family="Times New Roman,serif" font-size="11.00" fill="gray">Fig</text>
</g>
<g id="clust4" class="cluster"><title>cluster_\Core\Fig\Http</title>
<path fill="none" stroke="gray" d="M545.266,-1406C545.266,-1406 718.266,-1406 718.266,-1406 724.266,-1406 730.266,-1412 730.266,-1418 730.266,-1418 730.266,-1502 730.266,-1502 730.266,-1508 724.266,-1514 718.266,-1514 718.266,-1514 545.266,-1514 545.266,-1514 539.266,-1514 533.266,-1508 533.266,-1502 533.266,-1502 533.266,-1418 533.266,-1418 533.266,-1412 539.266,-1406 545.266,-1406"/>
<text text-anchor="middle" x="631.766" y="-1501.2" font-family="Times New Roman,serif" font-size="11.00" fill="gray">Http</text>
</g>
<g id="clust5" class="cluster"><title>cluster_\Core\Fig\Http\Message</title>
<path fill="none" stroke="gray" d="M553.266,-1414C553.266,-1414 710.266,-1414 710.266,-1414 716.266,-1414 722.266,-1420 722.266,-1426 722.266,-1426 722.266,-1474 722.266,-1474 722.266,-1480 716.266,-1486 710.266,-1486 710.266,-1486 553.266,-1486 553.266,-1486 547.266,-1486 541.266,-1480 541.266,-1474 541.266,-1474 541.266,-1426 541.266,-1426 541.266,-1420 547.266,-1414 553.266,-1414"/>
<text text-anchor="middle" x="631.766" y="-1473.2" font-family="Times New Roman,serif" font-size="11.00" fill="gray">Message</text>
</g>
<g id="clust7" class="cluster"><title>cluster_\Core\Web</title>
<path fill="none" stroke="gray" d="M568.766,-832C568.766,-832 694.766,-832 694.766,-832 700.766,-832 706.766,-838 706.766,-844 706.766,-844 706.766,-1136 706.766,-1136 706.766,-1142 700.766,-1148 694.766,-1148 694.766,-1148 568.766,-1148 568.766,-1148 562.766,-1148 556.766,-1142 556.766,-1136 556.766,-1136 556.766,-844 556.766,-844 556.766,-838 562.766,-832 568.766,-832"/>
<text text-anchor="middle" x="631.766" y="-1135.2" font-family="Times New Roman,serif" font-size="11.00" fill="gray">Web</text>
</g>
<g id="clust8" class="cluster"><title>cluster_\Core\Web\Router</title>
<path fill="none" stroke="gray" d="M576.766,-886C576.766,-886 686.766,-886 686.766,-886 692.766,-886 698.766,-892 698.766,-898 698.766,-898 698.766,-1108 698.766,-1108 698.766,-1114 692.766,-1120 686.766,-1120 686.766,-1120 576.766,-1120 576.766,-1120 570.766,-1120 564.766,-1114 564.766,-1108 564.766,-1108 564.766,-898 564.766,-898 564.766,-892 570.766,-886 576.766,-886"/>
<text text-anchor="middle" x="631.766" y="-1107.2" font-family="Times New Roman,serif" font-size="11.00" fill="gray">Router</text>
</g>
<g id="clust9" class="cluster"><title>cluster_\Core\Exception</title>
<path fill="none" stroke="gray" d="M532.766,-590C532.766,-590 730.766,-590 730.766,-590 736.766,-590 742.766,-596 742.766,-602 742.766,-602 742.766,-812 742.766,-812 742.766,-818 736.766,-824 730.766,-824 730.766,-824 532.766,-824 532.766,-824 526.766,-824 520.766,-818 520.766,-812 520.766,-812 520.766,-602 520.766,-602 520.766,-596 526.766,-590 532.766,-590"/>
<text text-anchor="middle" x="631.766" y="-811.2" font-family="Times New Roman,serif" font-size="11.00" fill="gray">Exception</text>
</g>
<g id="clust10" class="cluster"><title>cluster_\Core\Database</title>
<path fill="none" stroke="gray" d="M300.328,-1156C300.328,-1156 686.766,-1156 686.766,-1156 692.766,-1156 698.766,-1162 698.766,-1168 698.766,-1168 698.766,-1378 698.766,-1378 698.766,-1384 692.766,-1390 686.766,-1390 686.766,-1390 300.328,-1390 300.328,-1390 294.328,-1390 288.328,-1384 288.328,-1378 288.328,-1378 288.328,-1168 288.328,-1168 288.328,-1162 294.328,-1156 300.328,-1156"/>
<text text-anchor="middle" x="493.547" y="-1377.2" font-family="Times New Roman,serif" font-size="11.00" fill="gray">Database</text>
</g>
<g id="clust12" class="cluster"><title>cluster_\Core\Assets</title>
<path fill="none" stroke="gray" d="M607.266,-510C607.266,-510 656.266,-510 656.266,-510 662.266,-510 668.266,-516 668.266,-522 668.266,-522 668.266,-570 668.266,-570 668.266,-576 662.266,-582 656.266,-582 656.266,-582 607.266,-582 607.266,-582 601.266,-582 595.266,-576 595.266,-570 595.266,-570 595.266,-522 595.266,-522 595.266,-516 601.266,-510 607.266,-510"/>
<text text-anchor="middle" x="631.766" y="-569.2" font-family="Times New Roman,serif" font-size="11.00" fill="gray">Assets</text>
</g>
<g id="clust11" class="cluster"><title>cluster_\Core\Ajax</title>
<path fill="none" stroke="gray" d="M608.766,-430C608.766,-430 654.766,-430 654.766,-430 660.766,-430 666.766,-436 666.766,-442 666.766,-442 666.766,-490 666.766,-490 666.766,-496 660.766,-502 654.766,-502 654.766,-502 608.766,-502 608.766,-502 602.766,-502 596.766,-496 596.766,-490 596.766,-490 596.766,-442 596.766,-442 596.766,-436 602.766,-430 608.766,-430"/>
<text text-anchor="middle" x="631.766" y="-489.2" font-family="Times New Roman,serif" font-size="11.00" fill="gray">Ajax</text>
</g>
<g id="clust13" class="cluster"><title>cluster_\App</title>
<path fill="none" stroke="gray" d="M575.766,-1658C575.766,-1658 921.766,-1658 921.766,-1658 927.766,-1658 933.766,-1664 933.766,-1670 933.766,-1670 933.766,-1854 933.766,-1854 933.766,-1860 927.766,-1866 921.766,-1866 921.766,-1866 575.766,-1866 575.766,-1866 569.766,-1866 563.766,-1860 563.766,-1854 563.766,-1854 563.766,-1670 563.766,-1670 563.766,-1664 569.766,-1658 575.766,-1658"/>
<text text-anchor="middle" x="748.766" y="-1853.2" font-family="Times New Roman,serif" font-size="11.00" fill="gray">App</text>
</g>
<g id="clust14" class="cluster"><title>cluster_\App\Controller</title>
<path fill="none" stroke="gray" d="M583.766,-1766C583.766,-1766 913.766,-1766 913.766,-1766 919.766,-1766 925.766,-1772 925.766,-1778 925.766,-1778 925.766,-1826 925.766,-1826 925.766,-1832 919.766,-1838 913.766,-1838 913.766,-1838 583.766,-1838 583.766,-1838 577.766,-1838 571.766,-1832 571.766,-1826 571.766,-1826 571.766,-1778 571.766,-1778 571.766,-1772 577.766,-1766 583.766,-1766"/>
<text text-anchor="middle" x="748.766" y="-1825.2" font-family="Times New Roman,serif" font-size="11.00" fill="gray">Controller</text>
</g>
<!-- \\Core\\Fig\\Http\\Message\\RequestMethodInterface -->
<g id="node1" class="node"><title>\\Core\\Fig\\Http\\Message\\RequestMethodInterface</title>
<polygon fill="none" stroke="black" points="714.266,-1458 549.266,-1458 549.266,-1422 714.266,-1422 714.266,-1458"/>
<text text-anchor="middle" x="631.766" y="-1437.2" font-family="Courier,monospace" font-size="11.00">RequestMethodInterface</text>
</g>
<!-- \\Core\\Controller\\Controller -->
<g id="node2" class="node"><title>\\Core\\Controller\\Controller</title>
<polygon fill="none" stroke="black" points="366.828,-1594 282.828,-1594 282.828,-1558 366.828,-1558 366.828,-1594"/>
<text text-anchor="middle" x="324.828" y="-1573.2" font-family="Courier,monospace" font-size="11.00">Controller</text>
</g>
<!-- \\Core\\Controller\\AssetsController -->
<g id="node3" class="node"><title>\\Core\\Controller\\AssetsController</title>
<polygon fill="none" stroke="black" points="694.266,-1594 569.266,-1594 569.266,-1558 694.266,-1558 694.266,-1594"/>
<text text-anchor="middle" x="631.766" y="-1573.2" font-family="Courier,monospace" font-size="11.00">AssetsController</text>
</g>
<!-- \\Core\\Controller\\AssetsController&#45;&gt;\\Core\\Controller\\Controller -->
<g id="edge11" class="edge"><title>\\Core\\Controller\\AssetsController&#45;&gt;\\Core\\Controller\\Controller</title>
<path fill="none" stroke="black" d="M569.057,-1576C512.606,-1576 430.056,-1576 377.135,-1576"/>
<polygon fill="none" stroke="black" points="376.963,-1572.5 366.963,-1576 376.963,-1579.5 376.963,-1572.5"/>
</g>
<!-- \\Core\\Web\\Router\\Route -->
<g id="node4" class="node"><title>\\Core\\Web\\Router\\Route</title>
<polygon fill="none" stroke="black" points="658.766,-1092 604.766,-1092 604.766,-1056 658.766,-1056 658.766,-1092"/>
<text text-anchor="middle" x="631.766" y="-1071.2" font-family="Courier,monospace" font-size="11.00">Route</text>
</g>
<!-- \\Core\\Web\\Router\\Router -->
<g id="node5" class="node"><title>\\Core\\Web\\Router\\Router</title>
<polygon fill="none" stroke="black" points="660.266,-1038 603.266,-1038 603.266,-1002 660.266,-1002 660.266,-1038"/>
<text text-anchor="middle" x="631.766" y="-1017.2" font-family="Courier,monospace" font-size="11.00">Router</text>
</g>
<!-- \\Core\\Web\\Router\\RouteCollection -->
<g id="node6" class="node"><title>\\Core\\Web\\Router\\RouteCollection</title>
<polygon fill="none" stroke="black" points="690.766,-984 572.766,-984 572.766,-948 690.766,-948 690.766,-984"/>
<text text-anchor="middle" x="631.766" y="-963.2" font-family="Courier,monospace" font-size="11.00">RouteCollection</text>
</g>
<!-- \\SplObjectStorage -->
<g id="node28" class="node"><title>\\SplObjectStorage</title>
<ellipse fill="none" stroke="black" cx="324.828" cy="-72" rx="77.1866" ry="18"/>
<text text-anchor="middle" x="324.828" y="-68.3" font-family="Times New Roman,serif" font-size="14.00" fill="gray">\SplObjectStorage</text>
</g>
<!-- \\Core\\Web\\Router\\RouteCollection&#45;&gt;\\SplObjectStorage -->
<g id="edge9" class="edge"><title>\\Core\\Web\\Router\\RouteCollection&#45;&gt;\\SplObjectStorage</title>
<path fill="none" stroke="black" d="M572.744,-964.955C553.438,-961.55 533.607,-954.151 520.766,-939 399.724,-796.187 580.453,-239.528 456.766,-99 445.229,-85.8918 429.164,-78.1562 412.229,-73.7676"/>
<polygon fill="none" stroke="black" points="412.704,-70.2884 402.185,-71.5551 411.198,-77.1245 412.704,-70.2884"/>
</g>
<!-- \\Core\\Web\\Router\\RouterConfig -->
<g id="node7" class="node"><title>\\Core\\Web\\Router\\RouterConfig</title>
<polygon fill="none" stroke="black" points="680.766,-930 582.766,-930 582.766,-894 680.766,-894 680.766,-930"/>
<text text-anchor="middle" x="631.766" y="-909.2" font-family="Courier,monospace" font-size="11.00">RouterConfig</text>
</g>
<!-- \\Core\\Web\\Url -->
<g id="node8" class="node"><title>\\Core\\Web\\Url</title>
<polygon fill="none" stroke="black" points="658.766,-876 604.766,-876 604.766,-840 658.766,-840 658.766,-876"/>
<text text-anchor="middle" x="631.766" y="-855.2" font-family="Courier,monospace" font-size="11.00">Url</text>
</g>
<!-- \\Core\\Exception\\ParisMethodMissingException -->
<g id="node9" class="node"><title>\\Core\\Exception\\ParisMethodMissingException</title>
<polygon fill="none" stroke="black" points="731.266,-796 532.266,-796 532.266,-760 731.266,-760 731.266,-796"/>
<text text-anchor="middle" x="631.766" y="-775.2" font-family="Courier,monospace" font-size="11.00">ParisMethodMissingException</text>
</g>
<!-- \\Exception -->
<g id="node26" class="node"><title>\\Exception</title>
<ellipse fill="none" stroke="black" cx="324.828" cy="-18" rx="50.0912" ry="18"/>
<text text-anchor="middle" x="324.828" y="-14.3" font-family="Times New Roman,serif" font-size="14.00" fill="gray">\Exception</text>
</g>
<!-- \\Core\\Exception\\ParisMethodMissingException&#45;&gt;\\Exception -->
<g id="edge2" class="edge"><title>\\Core\\Exception\\ParisMethodMissingException&#45;&gt;\\Exception</title>
<path fill="none" stroke="black" d="M532.012,-761.166C527.891,-758.244 524.099,-754.876 520.766,-751 418.051,-631.56 561.693,-162.502 456.766,-45 438.819,-24.9018 410.222,-17.4794 384.326,-15.3695"/>
<polygon fill="none" stroke="black" points="384.37,-11.8664 374.187,-14.7929 383.972,-18.8551 384.37,-11.8664"/>
</g>
<!-- \\Core\\Exception\\InvalidArgumentException -->
<g id="node10" class="node"><title>\\Core\\Exception\\InvalidArgumentException</title>
<polygon fill="none" stroke="black" points="721.266,-742 542.266,-742 542.266,-706 721.266,-706 721.266,-742"/>
<text text-anchor="middle" x="631.766" y="-721.2" font-family="Courier,monospace" font-size="11.00">InvalidArgumentException</text>
</g>
<!-- \\Core\\Exception\\InvalidArgumentException&#45;&gt;\\Exception -->
<g id="edge3" class="edge"><title>\\Core\\Exception\\InvalidArgumentException&#45;&gt;\\Exception</title>
<path fill="none" stroke="black" d="M542.102,-713.103C534.036,-709.088 526.689,-703.836 520.766,-697 425.431,-586.972 554.139,-153.229 456.766,-45 438.744,-24.9687 410.141,-17.5526 384.259,-15.4295"/>
<polygon fill="none" stroke="black" points="384.312,-11.9268 374.127,-14.8467 383.91,-18.9153 384.312,-11.9268"/>
</g>
<!-- \\Core\\Exception\\IdiormMethodMissingException -->
<g id="node11" class="node"><title>\\Core\\Exception\\IdiormMethodMissingException</title>
<polygon fill="none" stroke="black" points="734.766,-688 528.766,-688 528.766,-652 734.766,-652 734.766,-688"/>
<text text-anchor="middle" x="631.766" y="-667.2" font-family="Courier,monospace" font-size="11.00">IdiormMethodMissingException</text>
</g>
<!-- \\Core\\Exception\\IdiormMethodMissingException&#45;&gt;\\Exception -->
<g id="edge6" class="edge"><title>\\Core\\Exception\\IdiormMethodMissingException&#45;&gt;\\Exception</title>
<path fill="none" stroke="black" d="M530.2,-651.728C526.783,-649.154 523.613,-646.257 520.766,-643 344.845,-441.757 636.413,-242.924 456.766,-45 438.725,-25.1238 410.262,-17.6957 384.476,-15.5251"/>
<polygon fill="none" stroke="black" points="384.57,-12.0246 374.379,-14.9218 384.152,-19.0121 384.57,-12.0246"/>
</g>
<!-- \\Core\\Exception\\IdiormStringException -->
<g id="node12" class="node"><title>\\Core\\Exception\\IdiormStringException</title>
<polygon fill="none" stroke="black" points="710.766,-634 552.766,-634 552.766,-598 710.766,-598 710.766,-634"/>
<text text-anchor="middle" x="631.766" y="-613.2" font-family="Courier,monospace" font-size="11.00">IdiormStringException</text>
</g>
<!-- \\Core\\Exception\\IdiormStringException&#45;&gt;\\Exception -->
<g id="edge7" class="edge"><title>\\Core\\Exception\\IdiormStringException&#45;&gt;\\Exception</title>
<path fill="none" stroke="black" d="M552.743,-607.205C540.562,-602.583 529.229,-595.823 520.766,-586 362.732,-402.566 620.489,-223.374 456.766,-45 438.615,-25.2246 410.141,-17.8062 384.376,-15.6159"/>
<polygon fill="none" stroke="black" points="384.483,-12.1161 374.289,-15.0034 384.059,-19.1032 384.483,-12.1161"/>
</g>
<!-- \\Core\\Database\\IdiormString -->
<g id="node13" class="node"><title>\\Core\\Database\\IdiormString</title>
<polygon fill="none" stroke="black" points="680.766,-1362 582.766,-1362 582.766,-1326 680.766,-1326 680.766,-1362"/>
<text text-anchor="middle" x="631.766" y="-1341.2" font-family="Courier,monospace" font-size="11.00">IdiormString</text>
</g>
<!-- \\Core\\Database\\Model -->
<g id="node14" class="node"><title>\\Core\\Database\\Model</title>
<polygon fill="none" stroke="black" points="658.766,-1308 604.766,-1308 604.766,-1272 658.766,-1272 658.766,-1308"/>
<text text-anchor="middle" x="631.766" y="-1287.2" font-family="Courier,monospace" font-size="11.00">Model</text>
</g>
<!-- \\Core\\Database\\Idiorm -->
<g id="node15" class="node"><title>\\Core\\Database\\Idiorm</title>
<polygon fill="none" stroke="black" points="353.328,-1254 296.328,-1254 296.328,-1218 353.328,-1218 353.328,-1254"/>
<text text-anchor="middle" x="324.828" y="-1233.2" font-family="Courier,monospace" font-size="11.00">Idiorm</text>
</g>
<!-- \\ArrayAccess -->
<g id="node27" class="node"><title>\\ArrayAccess</title>
<ellipse fill="none" stroke="black" cx="60.4446" cy="-1236" rx="60.3893" ry="18"/>
<text text-anchor="middle" x="60.4446" y="-1232.3" font-family="Times New Roman,serif" font-size="14.00" fill="gray">\ArrayAccess</text>
</g>
<!-- \\Core\\Database\\Idiorm&#45;&gt;\\ArrayAccess -->
<g id="edge8" class="edge"><title>\\Core\\Database\\Idiorm&#45;&gt;\\ArrayAccess</title>
<path fill="none" stroke="black" stroke-dasharray="1,5" d="M296.244,-1236C257.431,-1236 185.401,-1236 131.314,-1236"/>
<polygon fill="none" stroke="black" points="131.094,-1232.5 121.094,-1236 131.094,-1239.5 131.094,-1232.5"/>
</g>
<!-- \\Core\\Database\\ParisWrapper -->
<g id="node16" class="node"><title>\\Core\\Database\\ParisWrapper</title>
<polygon fill="none" stroke="black" points="680.766,-1254 582.766,-1254 582.766,-1218 680.766,-1218 680.766,-1254"/>
<text text-anchor="middle" x="631.766" y="-1233.2" font-family="Courier,monospace" font-size="11.00">ParisWrapper</text>
</g>
<!-- \\Core\\Database\\ParisWrapper&#45;&gt;\\Core\\Database\\Idiorm -->
<g id="edge10" class="edge"><title>\\Core\\Database\\ParisWrapper&#45;&gt;\\Core\\Database\\Idiorm</title>
<path fill="none" stroke="black" d="M582.447,-1236C521.706,-1236 418.721,-1236 363.488,-1236"/>
<polygon fill="none" stroke="black" points="363.428,-1232.5 353.428,-1236 363.428,-1239.5 363.428,-1232.5"/>
</g>
<!-- \\Core\\Database\\IdiormResultSet -->
<g id="node17" class="node"><title>\\Core\\Database\\IdiormResultSet</title>
<polygon fill="none" stroke="black" points="690.766,-1200 572.766,-1200 572.766,-1164 690.766,-1164 690.766,-1200"/>
<text text-anchor="middle" x="631.766" y="-1179.2" font-family="Courier,monospace" font-size="11.00">IdiormResultSet</text>
</g>
<!-- \\Core\\Database\\Countable -->
<g id="node29" class="node"><title>\\Core\\Database\\Countable</title>
<ellipse fill="none" stroke="black" cx="324.828" cy="-288" rx="106.681" ry="18"/>
<text text-anchor="middle" x="324.828" y="-284.3" font-family="Times New Roman,serif" font-size="14.00" fill="gray">\Core\Database\Countable</text>
</g>
<!-- \\Core\\Database\\IdiormResultSet&#45;&gt;\\Core\\Database\\Countable -->
<g id="edge12" class="edge"><title>\\Core\\Database\\IdiormResultSet&#45;&gt;\\Core\\Database\\Countable</title>
<path fill="none" stroke="black" stroke-dasharray="1,5" d="M575.558,-1164C555.61,-1154.93 534.617,-1141.95 520.766,-1124 418.357,-991.318 345.418,-446.42 329.22,-316.096"/>
<polygon fill="none" stroke="black" points="332.686,-315.603 327.989,-306.106 325.738,-316.459 332.686,-315.603"/>
</g>
<!-- \\Core\\Database\\IteratorAggregate -->
<g id="node30" class="node"><title>\\Core\\Database\\IteratorAggregate</title>
<ellipse fill="none" stroke="black" cx="324.828" cy="-234" rx="131.877" ry="18"/>
<text text-anchor="middle" x="324.828" y="-230.3" font-family="Times New Roman,serif" font-size="14.00" fill="gray">\Core\Database\IteratorAggregate</text>
</g>
<!-- \\Core\\Database\\IdiormResultSet&#45;&gt;\\Core\\Database\\IteratorAggregate -->
<g id="edge13" class="edge"><title>\\Core\\Database\\IdiormResultSet&#45;&gt;\\Core\\Database\\IteratorAggregate</title>
<path fill="none" stroke="black" stroke-dasharray="1,5" d="M572.624,-1164.42C552.939,-1155.5 532.889,-1142.51 520.766,-1124 415.411,-963.123 583.674,-405.483 456.766,-261 452.743,-256.42 448.167,-252.495 443.194,-249.14"/>
<polygon fill="none" stroke="black" points="444.871,-246.066 434.477,-244.015 441.324,-252.1 444.871,-246.066"/>
</g>
<!-- \\Core\\Database\\ArrayAccess -->
<g id="node31" class="node"><title>\\Core\\Database\\ArrayAccess</title>
<ellipse fill="none" stroke="black" cx="324.828" cy="-180" rx="116.18" ry="18"/>
<text text-anchor="middle" x="324.828" y="-176.3" font-family="Times New Roman,serif" font-size="14.00" fill="gray">\Core\Database\ArrayAccess</text>
</g>
<!-- \\Core\\Database\\IdiormResultSet&#45;&gt;\\Core\\Database\\ArrayAccess -->
<g id="edge14" class="edge"><title>\\Core\\Database\\IdiormResultSet&#45;&gt;\\Core\\Database\\ArrayAccess</title>
<path fill="none" stroke="black" stroke-dasharray="1,5" d="M572.581,-1164.44C552.891,-1155.53 532.849,-1142.54 520.766,-1124 409.225,-952.867 591.24,-360.768 456.766,-207 451.671,-201.174 445.682,-196.408 439.118,-192.524"/>
<polygon fill="none" stroke="black" points="440.336,-189.215 429.842,-187.758 437.137,-195.441 440.336,-189.215"/>
</g>
<!-- \\Core\\Database\\Serializable -->
<g id="node32" class="node"><title>\\Core\\Database\\Serializable</title>
<ellipse fill="none" stroke="black" cx="324.828" cy="-126" rx="109.681" ry="18"/>
<text text-anchor="middle" x="324.828" y="-122.3" font-family="Times New Roman,serif" font-size="14.00" fill="gray">\Core\Database\Serializable</text>
</g>
<!-- \\Core\\Database\\IdiormResultSet&#45;&gt;\\Core\\Database\\Serializable -->
<g id="edge15" class="edge"><title>\\Core\\Database\\IdiormResultSet&#45;&gt;\\Core\\Database\\Serializable</title>
<path fill="none" stroke="black" stroke-dasharray="1,5" d="M572.542,-1164.47C552.848,-1155.56 532.813,-1142.56 520.766,-1124 403.038,-942.61 598.806,-316.055 456.766,-153 451.013,-146.396 444.111,-141.152 436.524,-137.011"/>
<polygon fill="none" stroke="black" points="437.865,-133.773 427.331,-132.641 434.86,-140.095 437.865,-133.773"/>
</g>
<!-- \\Core\\Ajax\\Ajax -->
<g id="node18" class="node"><title>\\Core\\Ajax\\Ajax</title>
<polygon fill="none" stroke="black" points="658.766,-474 604.766,-474 604.766,-438 658.766,-438 658.766,-474"/>
<text text-anchor="middle" x="631.766" y="-453.2" font-family="Courier,monospace" font-size="11.00">Ajax</text>
</g>
<!-- \\Core\\Assets\\Assets -->
<g id="node19" class="node"><title>\\Core\\Assets\\Assets</title>
<polygon fill="none" stroke="black" points="660.266,-554 603.266,-554 603.266,-518 660.266,-518 660.266,-554"/>
<text text-anchor="middle" x="631.766" y="-533.2" font-family="Courier,monospace" font-size="11.00">Assets</text>
</g>
<!-- \\Core\\Autoloader -->
<g id="node20" class="node"><title>\\Core\\Autoloader</title>
<polygon fill="none" stroke="black" points="673.766,-420 589.766,-420 589.766,-384 673.766,-384 673.766,-420"/>
<text text-anchor="middle" x="631.766" y="-399.2" font-family="Courier,monospace" font-size="11.00">Autoloader</text>
</g>
<!-- \\Core\\App -->
<g id="node21" class="node"><title>\\Core\\App</title>
<polygon fill="none" stroke="black" points="658.766,-366 604.766,-366 604.766,-330 658.766,-330 658.766,-366"/>
<text text-anchor="middle" x="631.766" y="-345.2" font-family="Courier,monospace" font-size="11.00">App</text>
</g>
<!-- \\App\\Controller\\AppController -->
<g id="node22" class="node"><title>\\App\\Controller\\AppController</title>
<polygon fill="none" stroke="black" points="683.766,-1810 579.766,-1810 579.766,-1774 683.766,-1774 683.766,-1810"/>
<text text-anchor="middle" x="631.766" y="-1789.2" font-family="Courier,monospace" font-size="11.00">AppController</text>
</g>
<!-- \\App\\Controller\\AppController&#45;&gt;\\Core\\Controller\\Controller -->
<g id="edge1" class="edge"><title>\\App\\Controller\\AppController&#45;&gt;\\Core\\Controller\\Controller</title>
<path fill="none" stroke="black" d="M605.291,-1773.96C550.47,-1735.12 421.294,-1643.62 359.675,-1599.98"/>
<polygon fill="none" stroke="black" points="361.627,-1597.07 351.444,-1594.15 357.581,-1602.78 361.627,-1597.07"/>
</g>
<!-- \\App\\Controller\\SiteController -->
<g id="node23" class="node"><title>\\App\\Controller\\SiteController</title>
<polygon fill="none" stroke="black" points="917.766,-1810 806.766,-1810 806.766,-1774 917.766,-1774 917.766,-1810"/>
<text text-anchor="middle" x="862.266" y="-1789.2" font-family="Courier,monospace" font-size="11.00">SiteController</text>
</g>
<!-- \\App\\Controller\\SiteController&#45;&gt;\\App\\Controller\\AppController -->
<g id="edge4" class="edge"><title>\\App\\Controller\\SiteController&#45;&gt;\\App\\Controller\\AppController</title>
<path fill="none" stroke="black" d="M806.534,-1792C772.647,-1792 729.067,-1792 694.028,-1792"/>
<polygon fill="none" stroke="black" points="693.919,-1788.5 683.919,-1792 693.919,-1795.5 693.919,-1788.5"/>
</g>
<!-- \\App\\Autoloader -->
<g id="node24" class="node"><title>\\App\\Autoloader</title>
<polygon fill="none" stroke="black" points="904.266,-1756 820.266,-1756 820.266,-1720 904.266,-1720 904.266,-1756"/>
<text text-anchor="middle" x="862.266" y="-1735.2" font-family="Courier,monospace" font-size="11.00">Autoloader</text>
</g>
<!-- \\App\\App -->
<g id="node25" class="node"><title>\\App\\App</title>
<polygon fill="none" stroke="black" points="889.266,-1702 835.266,-1702 835.266,-1666 889.266,-1666 889.266,-1702"/>
<text text-anchor="middle" x="862.266" y="-1681.2" font-family="Courier,monospace" font-size="11.00">App</text>
</g>
<!-- \\App\\App&#45;&gt;\\Core\\App -->
<g id="edge5" class="edge"><title>\\App\\App&#45;&gt;\\Core\\App</title>
<path fill="none" stroke="black" d="M861.002,-1665.61C858.664,-1514.24 839.456,-477.139 750.766,-375 730.817,-352.026 695.69,-346.402 668.934,-345.852"/>
<polygon fill="none" stroke="black" points="668.769,-342.352 658.776,-345.872 668.783,-349.352 668.769,-342.352"/>
</g>
</g>
</svg>
